#!OML:ASF F:\VICON\USERDATA\INSTALL\rory3\rory3.ASF
:FULLY-SPECIFIED
:DEGREES
244
root -0.11001685795682847 17.80207712659718 55.46969174436761 -1.4188662258839868 -2.361257086279123 -2.989954990002113
lfemur -10.281233016487837 -2.720730385869981 -19.202681180436418
ltibia 24.658147040983373
lfoot 6.812922779287683 -6.5243020255461115
ltoes -0.5784259844263535
rfemur -8.593434009079452 4.506716912180117 26.661422468013846
rtibia 33.00141892550539
rfoot -3.5307791967093722 -3.6279488198674374
rtoes 9.085367707734054
lowerback 9.534192912486034 0.25789686207409696 3.6218040968934693
upperback -0.22787315081834963 0.9487784264366326 1.5104161406128949
thorax -5.394632727286995 0.33790873795272564 -1.052944734853962
lowerneck -15.976574635483237 -2.7449803149252836 -3.5268936487213267
upperneck 22.391567930249636 -3.198927383145104 0.7424637031183491
head 9.609585392487883 -1.6372368834798496 0.7768365182653963
lclavicle 1.446923589319229e-16 2.352222506157458e-16
lhumerus -32.007864050624136 3.8056739759012954 79.53614675519012
lradius 27.157542883162034
lwrist 5.449718381558133
lhand -28.87970724928382 19.92644962637162
lfingers 7.12502
lthumb -2.256201110266551 49.65721185943475
rclavicle 1.4636454581023736e-16 2.365324572292286e-16
rhumerus -26.887934568175183 -18.683169604531358 -76.99273166319276
rradius 18.95576451997528
rwrist 9.605536267000682
rhand -18.186382216471664 23.049497976881128
rfingers 7.12502
rthumb 7.871903924987518 -7.67497971295647
245
root -0.10881210408923148 17.786574139299063 55.47436642579003 -1.2268066427916644 -2.193277417932312 -2.9106237260413708
lfemur -10.777460004183123 -2.932722689842061 -19.11521444926728
ltibia 24.807691698503014
lfoot 6.29182445760818 -5.881214150305102
ltoes -0.7392381139836042
rfemur -8.970564150882762 4.246936846104646 26.373905322534597
rtibia 33.86098716753026
rfoot -3.4033265160935944 -3.987267827225683
rtoes 8.746366643255463
lowerback 9.410603902795444 0.20382983425735007 3.6505133232029507
upperback -0.2916482248329074 0.8558736183793815 1.4901423978395507
thorax -5.454815356368817 0.28493169092867515 -0.9704524202356877
lowerneck -15.966846101688034 -2.7527372898319973 -3.543083148600217
upperneck 22.382443991108957 -3.2091261323137807 0.7680413663207271
head 9.602479662280084 -1.6433442544693138 0.7933128272551728
lclavicle 1.4525534085030318e-16 2.3565618765253465e-16
lhumerus -32.101302055606006 3.712567788743948 79.45794617157613
lradius 27.443748709816134
lwrist 5.0189728366998
lhand -28.70702646411526 20.087706760484625
lfingers 7.12502
lthumb -2.169502285351756 49.73449400558051
rclavicle 1.4586994779162714e-16 2.3615215057348966e-16
rhumerus -26.88227179183651 -18.28513494498267 -77.1448916730494
rradius 19.063197315532395
rwrist 9.650795389840539
rhand -18.217345700387426 23.032808643881726
rfingers 7.12502
rthumb 7.896734086616465 -7.646235707276899
246
root -0.11753769635008388 17.78869377507098 55.28421318425859 -1.064829493098338 -2.1281864061334677 -2.91587814522447
lfemur -11.218922338569566 -3.0378178678139633 -18.907365248353024
ltibia 24.32961481355401
lfoot 6.028956963238014 -5.0280900560246184
ltoes -1.1972909851482827
rfemur -9.458145615582488 4.09197769518712 26.17501734589009
rtibia 34.48317511278164
rfoot -3.21418247602157 -4.385069588381281
rtoes 8.760886854916388
lowerback 9.289803764167035 0.1893671610782914 3.6711918876791194
upperback -0.36472671590725014 0.8195405419396125 1.4923709260428273
thorax -5.5521831115698035 0.2581043275424804 -0.8334702273692376
lowerneck -15.955714268083964 -2.7625977452445265 -3.5461785974953557
upperneck 22.376489839576035 -3.224508394369402 0.787648976019696
head 9.60180590070187 -1.649493855683108 0.7960291679680154
lclavicle 1.4575281272585232e-16 2.360402437800218e-16
lhumerus -32.29525020828194 3.5124816805622032 79.41339249042704
lradius 27.776059982364202
lwrist 5.08241508442637
lhand -28.64905183140427 20.033504900153787
lfingers 7.12502
lthumb -2.1073174358393185 49.73558603026749
rclavicle 1.4666028567911075e-16 2.367598586683513e-16
rhumerus -26.865762512959417 -18.076434088065255 -77.3047855606413
rradius 19.15622301492381
rwrist 9.805132887144518
rhand -18.2499117143839 22.95464333602943
rfingers 7.12502
rthumb 7.907252840397796 -7.7145734101736805
247
root -0.1261993932997395 17.77056117766507 55.15700402223045 -0.9848788844220313 -2.116578647695856 -2.850606096446806
lfemur -11.633328541012297 -3.0533757999059645 -18.77389161565482
ltibia 23.829782322313843
lfoot 5.1847189568410785 -4.4465452475026845
ltoes -1.5670212992020296
rfemur -9.975389660504208 3.833366060824905 25.998508385426064
rtibia 35.214254303256865
rfoot -3.293051066539114 -4.7603261669429
rtoes 8.22980113258506
lowerback 9.246137101108818 0.17776339636508984 3.624622379186858
upperback -0.402518820324883 0.7949229907465087 1.4657137801582278
thorax -5.620367998801422 0.24120014236831366 -0.6863008004515192
lowerneck -15.956215523127355 -2.7740560296602954 -3.5719486485154603
upperneck 22.31450965569337 -3.241619458703462 0.854359463181311
head 9.569225510387355 -1.6535078164120003 0.8265076134476841
lclavicle 1.449814333113678e-16 2.3544600561413836e-16
lhumerus -32.53966786028921 3.472318798365351 79.37001595846796
lradius 28.117314775051913
lwrist 5.1690816626335145
lhand -28.564230677408005 20.148033773466334
lfingers 7.12502
lthumb -2.0531569180824767 49.94263371596573
rclavicle 1.4644574624112674e-16 2.3659487776636867e-16
rhumerus -26.849732780767763 -18.03933969279611 -77.38695635038816
rradius 19.14179057253754
rwrist 9.918127068996085
rhand -18.259745184900176 22.950735564410696
rfingers 7.12502
rthumb 7.908977545924896 -7.770928450043916
